# xmcd
# 
# Track frame offsets:
#     150
#     35455
#     53435
#     75639
#     102971
#     128187
#     153043
#     167877
# 
# Disc length: 2440
# 
# Revision: 2
# Processed by: cddbd v1.5.2PL0 Copyright (c) Steve Scherf et al.
# Submitted via: fre:ac v1.0.27
# 
DISCID=55098608
DTITLE=The Verve - Urban Hymns [Super Deluxe - Disc 3]
DYEAR=2017
DGENRE=Alternative Rock/Britpop
TTITLE0=Bitter Sweet Symphony [Extended Version]
TTITLE1=This Could Be My Moment [Album Session Outtake]
TTITLE2=Monte Carlo [Album Session Outtake]
TTITLE3=Life's An Ocean [BBC Evening Session, 27.08.97]
TTITLE4=A Man Called Sun [BBC Evening Session, 27.08.97]
TTITLE5=The Drugs Don't Work [BBC Evening Session, 27.08.97]
TTITLE6=On Your Own [BBC Evening Session, 27.08.97]
TTITLE7=So Sister [BBC Evening Session, 27.08.97]
EXTD=
EXTT0=
EXTT1=
EXTT2=
EXTT3=
EXTT4=
EXTT5=
EXTT6=
EXTT7=
PLAYORDER=
